<?xml version="1.0" encoding="utf-8"?>
<!-- Generator: Adobe Illustrator 25.2.0, SVG Export Plug-In . SVG Version: 6.00 Build 0)  -->
<svg version="1.1" id="Ebene_1" xmlns="http://www.w3.org/2000/svg" xmlns:xlink="http://www.w3.org/1999/xlink" x="0px" y="0px"
	 viewBox="0 0 115.3 28.3" style="enable-background:new 0 0 115.3 28.3;" xml:space="preserve">
<style type="text/css">
	.st0{fill:#FFFFFF;}
</style>
<g>
	<path class="st0" d="M25.1,24.4c0.7,0.4,1.5,0.8,1.5,1.9c0,1.4-1.1,1.9-2.4,1.9c-0.7,0-1.4-0.2-1.6-0.2v-0.8
		c0.1,0.1,0.8,0.4,1.7,0.4c0.8,0,1.5-0.4,1.5-1.2c0-0.8-0.6-1.1-1.1-1.4l-0.6-0.3c-0.6-0.4-1.5-0.7-1.5-1.8c0-1.2,0.9-1.8,2.2-1.8
		c0.7,0,1.2,0.1,1.4,0.2v0.8c-0.2-0.1-0.8-0.3-1.5-0.3c-0.8,0-1.3,0.4-1.3,1s0.6,0.9,1.1,1.2L25.1,24.4z"/>
	<path class="st0" d="M28.6,21.2h0.8v3h2.8v-3H33v6.9h-0.8v-3.2h-2.8v3.2h-0.8V21.2z"/>
	<path class="st0" d="M37.5,22L37.5,22l1,3.4h-2L37.5,22z M34.9,28.1h0.8l0.7-2.1h2.4l0.7,2.1h0.8l-2.2-6.9H37L34.9,28.1z"/>
	<path class="st0" d="M42.8,21.9h0.6c0.8,0,1.8,0,1.8,1.2c0,1.1-1,1.4-1.9,1.4h-0.4v-2.6H42.8z M42,28.1h0.8v-3h0.7
		c1.1,0,1.3,0.5,1.5,1.5l0.3,1.6h0.8l-0.4-1.9c-0.1-0.8-0.2-1.3-1.2-1.5l0,0c0.6-0.2,1.4-0.5,1.4-1.7c0-1.7-1.7-1.7-2.2-1.7H42V28.1
		z"/>
	<path class="st0" d="M48.3,21.2h0.8v6.9h-0.8V21.2z"/>
	<path class="st0" d="M51.7,21.2h1l2.8,5.8l0,0v-5.8h0.7v6.9h-1l-2.8-5.8l0,0v5.8h-0.7V21.2z"/>
	<path class="st0" d="M63.3,27.6c-0.2,0.1-0.9,0.7-2,0.7c-2.2,0-2.7-1.8-2.7-3.8c0-1.7,0.7-3.3,2.6-3.3c1.4,0,2.2,0.8,2.2,2h-0.9
		c0-0.6-0.3-1.3-1.3-1.3c-1.4,0-1.7,1.4-1.7,2.7c0,1.3,0.2,3.1,1.8,3.1c0.7,0,1.1-0.3,1.3-0.4V25H61v-0.6h2.3L63.3,27.6L63.3,27.6z"
		/>
	<path class="st0" d="M69.1,21.2h3.3v0.6h-2.5v2.3h2.4v0.6h-2.4v2.6h2.6v0.6h-3.4V21.2z"/>
	<path class="st0" d="M76.1,24.5l-1.9-3.3H75l1.5,2.6l1.5-2.6h0.8l-1.9,3.3l2.2,3.6h-0.8l-1.7-2.9l-1.7,2.9h-0.8L76.1,24.5z"/>
	<path class="st0" d="M81.4,21.9H82c0.6,0,1.6,0,1.6,1.3c0,0.8-0.4,1.2-1.4,1.2h-0.8L81.4,21.9L81.4,21.9z M80.7,28.1h0.8V25h0.8
		c1.3,0,2.2-0.5,2.2-1.9c0-1.9-1.6-1.9-2.2-1.9h-1.6L80.7,28.1L80.7,28.1z"/>
	<path class="st0" d="M86.3,21.2h3.3v0.6h-2.5v2.3h2.4v0.6h-2.4v2.6h2.6v0.6h-3.4V21.2z"/>
	<path class="st0" d="M92.6,21.9h0.6c0.8,0,1.8,0,1.8,1.2c0,1.1-1,1.4-1.9,1.4h-0.4v-2.6H92.6z M91.8,28.1h0.8v-3h0.7
		c1.1,0,1.3,0.5,1.5,1.5l0.3,1.6h0.8l-0.4-1.9c-0.2-0.8-0.2-1.3-1.2-1.5l0,0c0.6-0.2,1.4-0.5,1.4-1.7c0-1.7-1.7-1.7-2.2-1.7h-1.7
		L91.8,28.1L91.8,28.1z"/>
	<path class="st0" d="M98.8,21.9h-1.6v-0.6h4.1v0.6h-1.6v6.2h-0.8v-6.2H98.8z"/>
	<path class="st0" d="M102.9,21.2h0.8v6.9h-0.8V21.2z"/>
	<path class="st0" d="M108.4,24.4c0.7,0.4,1.5,0.8,1.5,1.9c0,1.4-1.1,1.9-2.4,1.9c-0.7,0-1.4-0.2-1.6-0.2v-0.8
		c0.2,0.1,0.8,0.4,1.7,0.4c0.8,0,1.5-0.4,1.5-1.2c0-0.8-0.6-1.1-1.1-1.4l-0.6-0.3c-0.6-0.4-1.5-0.7-1.5-1.8c0-1.2,0.9-1.8,2.2-1.8
		c0.7,0,1.2,0.1,1.4,0.2v0.8c-0.2-0.1-0.8-0.3-1.5-0.3c-0.8,0-1.3,0.4-1.3,1s0.6,0.9,1.1,1.2L108.4,24.4z"/>
	<path class="st0" d="M111.9,21.2h3.3v0.6h-2.5v2.3h2.4v0.6h-2.4v2.6h2.6v0.6h-3.4V21.2z"/>
	<path class="st0" d="M31.3,2.1c3.5,0,3.6,3,3.6,3c0,3.1-2.7,3.1-2.7,3.1c3.9,0,3.8,3.7,3.8,3.7c0,4.3-5.1,4.1-5.1,4.1h-9.3
		c0,0,1.1-0.3,1.1-1.3c0-0.4,0-10.4,0-11.2c0-1-1-1.3-1-1.3S27.8,2.1,31.3,2.1z M27,4.5v9h2.6c0,0,2.3,0,2.2-1.9c0,0,0-1.6-4.2-3.4
		h1.7c0,0,1.8,0.1,1.8-1.9c0-1.8-2-1.8-2-1.8L27,4.5z"/>
	<path class="st0" d="M9.7,2.1c3.5,0,3.6,3,3.6,3c0,3.1-2.7,3.1-2.7,3.1c3.9,0,3.8,3.7,3.8,3.7c0,4.3-5.1,4.1-5.1,4.1H0
		c0,0,1.1-0.3,1.1-1.3c0-0.4,0-10.4,0-11.2c0-1-1-1.3-1-1.3S6.2,2.1,9.7,2.1z M5.4,4.5v9H8c0,0,2.3,0,2.2-1.9c0,0,0-1.6-4.2-3.4h1.7
		c0,0,1.8,0.1,1.8-1.9c0-1.8-2-1.8-2-1.8L5.4,4.5z"/>
	<g>
		<path class="st0" d="M37.1,2.1c0,0,1,0.3,1,1.3c0,1.1,0,10.3,0,11.2c0,1-1.1,1.3-1.1,1.3h5.5V4.5h2.3c0,0,2.1,0,2.1,2.1
			S45,8.8,45,8.8h-2c0,0,0.9,0.7,2,3.2s1.1,2.5,1.1,2.5s0.8,1.4,1.7,1.4c0.9,0,4.4,0,4.4,0s-1-0.3-1.5-1.6c-0.6-1.3-0.5-1.1-1.2-2.9
			c-0.8-2-2.2-1.9-2.2-1.9s3.7,0,3.7-3.9S45.4,2,45.4,2L37.1,2.1L37.1,2.1z"/>
	</g>
	<path class="st0" d="M64.4,15.9h5.5c0,0-0.8-0.2-1.4-1.8c-0.6-1.6-3.8-10.6-3.8-10.6s-0.3-1.4-1.5-1.4s-6.1,0-6.1,0
		s1.3,0.2,0.9,1.4c-0.2,0.6-1.3,3.6-2.3,6h-1.4c-0.9,0-1.1,0.7-1.4,1.5c-0.4,0.8-1.2,1.6-1.2,1.6c0.5-0.3,2.1-0.2,2.1-0.2h0.8
		l-0.3,0.7c0,0-0.8,2.1-1.5,2.8h4.1l1.3-3.6c0.4,0,0.6,0,0.8,0c1-0.1,1.3-0.6,1.5-1.3c0.2-0.7,1.2-1.7,1.2-1.7
		c-0.4,0.1-1.8,0.1-1.8,0.1h-0.6l1.4-3.7L64.4,15.9z"/>
	<path class="st0" d="M68.6,2.1c0,0,1.1,0.2,1.1,1.4c0,1.2,0,7.4,0,7.4s-0.3,5.3,6.6,5.3c6.8,0,6.6-4.9,6.6-4.9V3.6
		c0,0,0-1.4-1.3-1.4c-1.1,0-3.2,0-3.2,0s1.1,0.2,1.1,1.4c0,1.1,0,7.5,0,7.5s0.1,2.3-2.6,2.3c0,0-2.4,0.1-2.4-2.5s0-7.4,0-7.4
		s0-1.4-1.3-1.4C71.8,2.1,68.6,2.1,68.6,2.1z"/>
	<path class="st0" d="M84.6,2.1c0,0,1,0.2,1,1.5c0,1,0,9.8,0,10.9c0,1.2-1,1.4-1,1.4H89V8.7l5.6,6.1c0,0,0.8,1.1,2.3,1.1
		c1.8,0,2.1,0,2.1,0V3.6c0,0,0.1-1.6-1.3-1.6c-1.5,0-3.2,0-3.2,0s1,0.3,1,1.4s0,5.9,0,5.9l-6.4-7.2L84.6,2.1L84.6,2.1z"/>
	<g>
		<rect x="17.7" class="st0" width="0.6" height="17.6"/>
	</g>
</g>
</svg>
