<?xml version="1.0" encoding="utf-8"?>
<!-- Generator: Adobe Illustrator 25.2.0, SVG Export Plug-In . SVG Version: 6.00 Build 0)  -->
<svg version="1.1" id="Ebene_1" xmlns="http://www.w3.org/2000/svg" xmlns:xlink="http://www.w3.org/1999/xlink" x="0px" y="0px"
	 viewBox="0 0 115.5 28.2" style="enable-background:new 0 0 115.5 28.2;" xml:space="preserve">
<g>
	<path d="M25.2,24.4c0.7,0.4,1.5,0.8,1.5,1.9c0,1.4-1.1,1.9-2.4,1.9c-0.7,0-1.4-0.2-1.6-0.2v-0.8c0.1,0.1,0.8,0.4,1.7,0.4
		c0.8,0,1.5-0.4,1.5-1.2c0-0.8-0.6-1.1-1.1-1.4l-0.6-0.3c-0.6-0.4-1.5-0.7-1.5-1.8c0-1.2,0.9-1.8,2.2-1.8c0.7,0,1.2,0.1,1.4,0.2v0.8
		c-0.2-0.1-0.8-0.3-1.5-0.3c-0.8,0-1.3,0.4-1.3,1s0.6,0.9,1.1,1.2L25.2,24.4z"/>
	<path d="M28.7,21.2h0.8v3h2.8v-3h0.8v6.9h-0.8v-3.2h-2.8v3.2h-0.8V21.2z"/>
	<path d="M37.6,21.9L37.6,21.9l1,3.4h-2L37.6,21.9z M34.9,28.1h0.8l0.7-2.1h2.4l0.7,2.1h0.8l-2.2-6.9h-0.9L34.9,28.1z"/>
	<path d="M42.9,21.9h0.6c0.8,0,1.8,0,1.8,1.2c0,1.1-1,1.4-1.9,1.4H43v-2.6H42.9z M42.1,28.1h0.8V25h0.7c1.1,0,1.3,0.5,1.5,1.5
		l0.3,1.6h0.8l-0.4-1.9c-0.1-0.8-0.2-1.3-1.2-1.5l0,0c0.6-0.2,1.4-0.5,1.4-1.7c0-1.7-1.7-1.7-2.2-1.7h-1.7L42.1,28.1L42.1,28.1z"/>
	<path d="M48.4,21.2h0.8v6.9h-0.8V21.2z"/>
	<path d="M51.8,21.2h1l2.8,5.8l0,0v-5.8h0.7v6.9h-1l-2.8-5.8l0,0v5.8h-0.7V21.2z"/>
	<path d="M63.4,27.5c-0.2,0.1-0.9,0.7-2,0.7c-2.2,0-2.7-1.8-2.7-3.8c0-1.8,0.7-3.3,2.6-3.3c1.4,0,2.2,0.8,2.2,2h-1
		c0-0.6-0.3-1.3-1.3-1.3c-1.4,0-1.7,1.4-1.7,2.7c0,1.3,0.2,3.1,1.8,3.1c0.7,0,1.1-0.3,1.3-0.4v-2.3H61v-0.6h2.3v3.2H63.4z"/>
	<path d="M69.2,21.2h3.3v0.6H70v2.3h2.4v0.6H70v2.6h2.6v0.6h-3.4V21.2z"/>
	<path d="M76.2,24.5l-1.9-3.3h0.8l1.5,2.6l1.5-2.6h0.8L77,24.5l2.2,3.6h-0.8l-1.7-2.9L75,28.1h-0.8L76.2,24.5z"/>
	<path d="M81.6,21.9h0.6c0.6,0,1.6,0,1.6,1.3c0,0.8-0.4,1.2-1.4,1.2h-0.8L81.6,21.9L81.6,21.9z M80.8,28.1h0.8V25h0.8
		c1.3,0,2.2-0.5,2.2-1.9c0-1.9-1.6-1.9-2.2-1.9h-1.6L80.8,28.1L80.8,28.1z"/>
	<path d="M86.5,21.2h3.3v0.6h-2.5v2.3h2.4v0.6h-2.4v2.6h2.6v0.6h-3.4V21.2z"/>
	<path d="M92.7,21.9h0.6c0.8,0,1.8,0,1.8,1.2c0,1.1-1,1.4-1.9,1.4h-0.4v-2.6H92.7z M92,28.1h0.8V25h0.7c1.1,0,1.3,0.5,1.5,1.5
		l0.3,1.6h0.8l-0.4-1.9c-0.2-0.8-0.2-1.3-1.2-1.5l0,0c0.6-0.2,1.4-0.5,1.4-1.7c0-1.7-1.7-1.7-2.2-1.7H92L92,28.1L92,28.1z"/>
	<path d="M99,21.9h-1.6v-0.6h4.1v0.6h-1.6v6.2h-0.8v-6.2H99z"/>
	<path d="M103,21.2h0.8v6.9H103V21.2z"/>
	<path d="M108.6,24.4c0.7,0.4,1.5,0.8,1.5,1.9c0,1.4-1.1,1.9-2.4,1.9c-0.7,0-1.4-0.2-1.6-0.2v-0.8c0.1,0.1,0.8,0.4,1.7,0.4
		c0.8,0,1.5-0.4,1.5-1.2c0-0.8-0.6-1.1-1.1-1.4l-0.6-0.3c-0.6-0.4-1.5-0.7-1.5-1.8c0-1.2,0.9-1.8,2.2-1.8c0.7,0,1.2,0.1,1.4,0.2v0.8
		c-0.2-0.1-0.8-0.3-1.5-0.3c-0.8,0-1.3,0.4-1.3,1s0.6,0.9,1.1,1.2L108.6,24.4z"/>
	<path d="M112.1,21.2h3.3v0.6h-2.5v2.3h2.4v0.6h-2.4v2.6h2.6v0.6h-3.4V21.2z"/>
	<path d="M31.4,2C34.9,2,35,5,35,5c0,3.1-2.7,3.1-2.7,3.1c3.9,0,3.8,3.7,3.8,3.7c0,4.3-5.1,4.1-5.1,4.1h-9.3c0,0,1.1-0.3,1.1-1.3
		c0-0.4,0-10.5,0-11.2c0-1-1-1.3-1-1.3S27.9,2,31.4,2z M27.1,4.4v9h2.6c0,0,2.3,0,2.2-1.9c0,0,0-1.6-4.2-3.4h1.7
		c0,0,1.8,0.1,1.8-1.9c0-1.8-2-1.8-2-1.8L27.1,4.4z"/>
	<path d="M9.7,2c3.5,0,3.6,3,3.6,3c0,3.1-2.7,3.1-2.7,3.1c3.9,0,3.8,3.7,3.8,3.7c0,4.3-5.1,4.1-5.1,4.1H0c0,0,1.1-0.3,1.1-1.3
		c0-0.4,0-10.5,0-11.2c0-1-1-1.3-1-1.3S6.2,2,9.7,2z M5.4,4.4v9H8c0,0,2.3,0,2.2-1.9c0,0,0-1.6-4.2-3.4h1.7c0,0,1.8,0.1,1.8-1.9
		c0-1.8-2-1.8-2-1.8L5.4,4.4z"/>
	<g>
		<path d="M37.2,2c0,0,1,0.3,1,1.3c0,1.1,0,10.3,0,11.2c0,1-1.1,1.3-1.1,1.3h5.5V4.4h2.3c0,0,2.1,0,2.1,2.1s-1.9,2.2-1.9,2.2h-2
			c0,0,0.9,0.7,2,3.2s1.1,2.5,1.1,2.5s0.8,1.4,1.7,1.4c0.9,0,4.4,0,4.4,0s-1-0.3-1.5-1.6c-0.6-1.3-0.5-1.1-1.2-2.9
			c-0.8-2-2.2-1.9-2.2-1.9s3.7,0,3.7-3.9s-5.6-3.6-5.6-3.6L37.2,2L37.2,2z"/>
	</g>
	<path d="M64.5,15.9H70c0,0-0.8-0.2-1.4-1.8C68,12.5,64.8,3.5,64.8,3.5s-0.3-1.4-1.5-1.4s-6.1,0-6.1,0s1.3,0.2,0.9,1.4
		c-0.2,0.6-1.3,3.6-2.3,6.1h-1.4c-0.9,0-1.1,0.7-1.4,1.5c-0.4,0.8-1.2,1.6-1.2,1.6c0.5-0.3,2.1-0.2,2.1-0.2h0.8l-0.3,0.7
		c0,0-0.8,2.1-1.5,2.8H57l1.3-3.6c0.4,0,0.6,0,0.8,0c1-0.1,1.3-0.6,1.5-1.3c0.2-0.7,1.2-1.7,1.2-1.7C61.4,9.5,60,9.5,60,9.5h-0.6
		l1.4-3.7L64.5,15.9z"/>
	<path d="M68.7,2c0,0,1.1,0.2,1.1,1.4c0,1.2,0,7.4,0,7.4s-0.3,5.3,6.6,5.3c6.8,0,6.6-4.9,6.6-4.9V3.5c0,0,0-1.4-1.3-1.4
		c-1.1,0-3.2,0-3.2,0s1.1,0.2,1.1,1.4c0,1.1,0,7.6,0,7.6s0.1,2.3-2.6,2.3c0,0-2.4,0.1-2.4-2.5s0-7.4,0-7.4s0-1.4-1.3-1.4
		C72,2,68.7,2,68.7,2z"/>
	<path d="M84.7,2c0,0,1,0.2,1,1.5c0,1,0,9.8,0,11s-1,1.4-1,1.4h4.4V8.7l5.6,6.1c0,0,0.8,1.1,2.3,1.1c1.8,0,2.1,0,2.1,0V3.6
		c0,0,0.1-1.6-1.3-1.6c-1.5,0-3.2,0-3.2,0s1,0.2,1,1.4c0,1.1,0,5.9,0,5.9L89.2,2H84.7z"/>
	<g>
		<rect x="17.8" width="0.6" height="17.6"/>
	</g>
</g>
</svg>
